"Why be the same as everyone else when YOU can be UNiQUEΓäó"

Name                                     : Sinister.2012.R5.Line.x264.AAC-UNiQUE 
Format                                   : MPEG-4
Format profile                           : Base Media
Codec ID                                 : isom
File size                                : 1.55 GiB
Duration                                 : 1h 45mn
Overall bit rate mode                    : Variable
Overall bit rate                         : 2 108 Kbps
Encoded date                             : UTC 2012-11-23 00:24:42

Video
ID                                       : 1
Format                                   : AVC
Format/Info                              : Advanced Video Codec
Format profile                           : High@L4.1
Format settings, CABAC                   : Yes
Format settings, ReFrames                : 3 frames
Codec ID                                 : avc1
Codec ID/Info                            : Advanced Video Coding
Duration                                 : 1h 45mn
Bit rate mode                            : Variable
Bit rate                                 : 1 803 Kbps
Maximum bit rate                         : 40.0 Mbps
Width                                    : 720 pixels
Height                                   : 304 pixels
Display aspect ratio                     : 2.35:1
Frame rate mode                          : Constant
Frame rate                               : 25.000 fps
Color space                              : YUV
Chroma subsampling                       : 4:2:0
Bit depth                                : 8 bits
Scan type                                : Progressive
Bits/(Pixel*Frame)                       : 0.329
Stream size                              : 1.32 GiB (85%)
Writing library                          : x264 core 129 r2230 1cffe9f

Audio
ID                                       : 2
Format                                   : AAC
Format/Info                              : Advanced Audio Codec
Format profile                           : LC
Codec ID                                 : 40
Duration                                 : 1h 45mn
Bit rate mode                            : Variable
Bit rate                                 : 302 Kbps
Maximum bit rate                         : 395 Kbps
Channel(s)                               : 6 channels
Channel positions                        : Front: L C R, Side: L R, LFE
Sampling rate                            : 48.0 KHz
Compression mode                         : Lossy
Stream size                              : 227 MiB (14%)
Language                                 : English
Encoded date                             : UTC 2012-11-23 00:25:44

Sources                            : Video - Sinister.2012.D.DVD5 - Thanks!
                                         : Audio - JiiNX/5.1.HQ.Hive-CM8 - Thanks!    

Storyline
A true-crime writer finds a cache of 8mm "snuff" films that suggest the murder he is currently researching is the work of a serial killer whose career dates back to the 1960s.

iMDB: http://www.imdb.com/title/tt1922777/

Screens:
 
http://s19.postimage.org/df5nqutmr/r_JEOcr37.png 
http://s19.postimage.org/c1e0vjudf/QE0_Ca_Z8_P.png 
http://s19.postimage.org/wzos7djlv/Qj_Nbx_VNU.png 
http://s19.postimage.org/3lt1rsgw3/hoa_Ueno_V.png 
http://s19.postimage.org/r1ayx50n7/RRfd2j1_V.png 
http://s19.postimage.org/gfr3l4ubn/jg5joy_K.png 
http://s19.postimage.org/3pmv81mdf/j_E8_Ge0jx.png

Notes:
Done from Proper VOBS not no XviD re-encode, get the real deal, muxed with the Full 5.1ch Audio from Hive.

Enjoy another KICKASS UNiQUE RELEASE !!!!!!  

Greets:
TEAM UNiQUE, SN1P3R, HP, JiiNX, DQ1 ...
